<svg aria-label="Cory Williams Logo" height="50"  xmlns="http://www.w3.org/2000/svg" xmlns:xlink="http://www.w3.org/1999/xlink" aria-label="Cory Williams Logo" viewBox="0 0 295.29 85.59">
  <defs>
    <style>
      .cls-1{fill:#fff}
    </style>
    <linearGradient id="linear-gradient" x1="9.47" x2="9.47" y2="48.79" gradientUnits="userSpaceOnUse">
      <stop offset="0" stop-color="#ffbd2e"/>
      <stop offset=".98" stop-color="#ff8b24"/>
    </linearGradient>
    <linearGradient id="linear-gradient-2" x1="34.44" x2="34.44" y2="48.79" xlink:href="#linear-gradient"/>
    <linearGradient id="linear-gradient-3" x1="62.56" x2="62.56" y2="48.79" xlink:href="#linear-gradient"/>
    <linearGradient id="linear-gradient-4" x1="85.67" x2="85.67" y2="48.79" xlink:href="#linear-gradient"/>
    <linearGradient id="linear-gradient-5" x1="131.09" x2="131.09" y2="48.79" xlink:href="#linear-gradient"/>
    <linearGradient id="linear-gradient-6" x1="155.35" x2="155.35" y2="48.79" xlink:href="#linear-gradient"/>
    <linearGradient id="linear-gradient-7" x1="173.39" x2="173.39" y2="48.79" xlink:href="#linear-gradient"/>
    <linearGradient id="linear-gradient-8" x1="193.39" x2="193.39" y2="48.79" xlink:href="#linear-gradient"/>
    <linearGradient id="linear-gradient-9" x1="208.52" x2="208.52" y2="48.79" xlink:href="#linear-gradient"/>
    <linearGradient id="linear-gradient-10" x1="227.26" x2="227.26" y2="48.79" xlink:href="#linear-gradient"/>
    <linearGradient id="linear-gradient-11" x1="256.94" x2="256.94" y2="48.79" xlink:href="#linear-gradient"/>
    <linearGradient id="linear-gradient-12" x1="285.58" x2="285.58" y2="48.79" xlink:href="#linear-gradient"/>
  </defs>
  <g id="Layer_2" data-name="Layer 2">
    <g id="Layer_1-2" data-name="Layer 1">
      <path d="M.79 61.26l9.1.07v2.18l-6.73-.05-.06 7.83h5.91v2.24H3.1L3 83.39H.63zM14.87 61.37l-.13 17c0 1.83.89 3.1 2.63 3.12s2.66-1.24 2.68-3.08l.13-17h2.37l-.12 16.52c0 4.71-2.79 5.89-5.07 5.87s-5-1.24-5-5.94l.12-16.52zM29.21 61.48l-.15 19.93 7 .05v2.18l-9.35-.07.17-22.11zM41.34 61.57l-.15 19.93 7 .05v2.18l-9.35-.07.16-22.11zM66 67.06a4 4 0 0 0-.65-2.41 2.58 2.58 0 0 0-2.11-.93 2.65 2.65 0 0 0-1.93.71 3.67 3.67 0 0 0-.84 2.68 5.11 5.11 0 0 0 .53 2.66A3.62 3.62 0 0 0 62.71 71l2 .74a5.66 5.66 0 0 1 2.8 1.88 5.78 5.78 0 0 1 .86 3.67v.79a7.05 7.05 0 0 1-1.49 4.73 5.45 5.45 0 0 1-4 1.36 5.06 5.06 0 0 1-4.25-1.77 6.85 6.85 0 0 1-.92-3.67v-.79h2.37v.63a4 4 0 0 0 .61 2.34 2.76 2.76 0 0 0 2.17.93 2.87 2.87 0 0 0 2.44-1 4.07 4.07 0 0 0 .7-2.5v-.85a4.38 4.38 0 0 0-.61-2.63 3.77 3.77 0 0 0-1.79-1.21l-2.39-.87a4.27 4.27 0 0 1-2.73-2.39 8 8 0 0 1-.42-3.13v-.66a5.25 5.25 0 0 1 1.61-3.94 5 5 0 0 1 3.64-1.24c3 0 5 2 5 5.53v.76h-2.37zM80.31 61.86v2.18H76.2l-.2 19.9h-2.37L73.81 64h-4.07v-2.18zM89.77 84l-1.07-4.89h-5L82.6 84h-2.3l5-22.07h2.15l4.67 22.15zm-3.53-17.4L84 77.05h4.33zM102.19 66.8a2.54 2.54 0 0 0-2.57-2.8c-2.5 0-2.73 2.13-2.74 3.33l-.09 11.91a2.63 2.63 0 0 0 2.54 2.89c1.23 0 2.75-.52 2.77-3.08v-.7h2.4v.82c0 3.16-1.49 5.26-5.28 5.24-4.42 0-4.81-3.64-4.8-4.9l.1-13.08a4.68 4.68 0 0 1 5-4.76c2.75 0 5 1.36 5 4.87V68h-2.31zM110.18 62.09l-.09 11.75 6.06-11.7h2.4L114 70.93l5.33 13.34h-2.56l-4.27-11.08-2.44 4.66v6.35h-2.37l.17-22.11zM130.77 62.24l2.15 15.94h.08l3.15-15.9h1.67l3 15.94h.18l2.27-15.9h2.56l-3.64 22.08h-2.18L137.07 69h-.13l-3.21 15.36h-2.18l-3.31-22.14zM148.61 62.37l8.88.07v2.18h-6.51l-.06 7.71h5.75v2.05h-5.75l-.06 8h6.6v2.18l-9-.07zM165.16 62.5c3 0 5.45 1.62 5.43 4.91v1.39a4.2 4.2 0 0 1-2.81 4.31c2.68.9 2.76 2.93 2.75 4.38v1.74c0 1.39-.17 5.43-5.47 5.39h-4.52l.17-22.11zm-2.27 20h1.93c1.93 0 3.29-1.18 3.31-3.77v-1.52a3 3 0 0 0-3.07-3.12h-2.12zM163 72h1.83c2.69 0 3.39-1.71 3.4-3.26v-1.39c0-1.39-1-2.79-3.2-2.8h-2zM186.44 62.66a5.63 5.63 0 0 1 4.31 1.67 6.27 6.27 0 0 1 1.29 4.43l-.08 10a6.27 6.27 0 0 1-1.36 4.41 5.63 5.63 0 0 1-4.34 1.61h-4.42l.16-22.15zm3.17 15.88l.07-9.6a4.28 4.28 0 0 0-.86-3 3.21 3.21 0 0 0-2.52-.94h-1.93l-.13 17.5h1.93a3.21 3.21 0 0 0 2.53-.9 4.28 4.28 0 0 0 .91-3.06zM196.23 62.73l8.88.07v2.18h-6.51l-.06 7.71h5.75v2.05h-5.75l-.06 8h6.6v2.18l-9-.07zM213.44 85h-2.12l-4.54-22.14h2.65l3 16.42h.09l3.28-16.37h2.5zM221.05 62.92l8.88.07v2.18h-6.51l-.06 7.71h5.75v2.05h-5.75l-.06 8h6.6v2.18l-9-.07zM235.49 63l-.15 20 7 .05v2.18l-9.34-.11.12-22.12zM243.78 68.68c0-1.64.15-3.22 1.61-4.57a5.9 5.9 0 0 1 7.45.06c1.44 1.37 1.56 2.95 1.54 4.59l-.08 10.93c0 1.64-.15 3.22-1.61 4.57a5.9 5.9 0 0 1-7.45-.06c-1.44-1.37-1.56-2.95-1.54-4.59zm8.25-.44a2.84 2.84 0 0 0-.8-2.31 3.23 3.23 0 0 0-4.23 0 2.85 2.85 0 0 0-.84 2.3l-.09 11.94a2.94 2.94 0 0 0 .8 2.34 3.33 3.33 0 0 0 4.23 0 2.94 2.94 0 0 0 .84-2.33zM259.14 63.2h4.8c4 0 5.44 2.63 5.42 5.66v2c0 2.84-1.87 5.39-5 5.36h-2.91l-.07 9.13h-2.37zm2.29 11h2.24a3 3 0 0 0 3.31-3v-2.62a2.94 2.94 0 0 0-3.23-3.31h-2.27zM272.62 63.31l8.88.07v2.18h-6.51l-.06 7.71h5.75v2.05h-5.75l-.06 8h6.6v2.18l-9-.07zM289.11 63.43c2.4 0 5.84.39 5.8 5.29v1.74c0 2.43-1 4.07-3.07 4.68l3.46 10.45h-2.46l-3.18-10h-2.68l-.07 9.95h-2.37l.17-22.11zM287 73.52h2.34a2.91 2.91 0 0 0 3.21-2.94V68.5c0-2.75-2.09-3-3.29-3h-2.21z" class="cls-1"/>
      <path fill="url(#linear-gradient)" d="M18.61 45.49a8.06 8.06 0 0 1-5 1.26C1.47 46.66-.07 33.41 0 24.06S1.34-.09 13.83 0a9 9 0 0 1 5.11 1.4v5.53a8.1 8.1 0 0 0-4-1.19C6.69 5.68 6.53 18 6.49 23.77s.35 16.93 8.54 17a7.46 7.46 0 0 0 3.62-.86z"/>
      <path fill="url(#linear-gradient-2)" d="M45.51 35.18C44.37 41.86 41.94 47 34.37 46.91a9.89 9.89 0 0 1-9.11-5.19C22.7 37 22.57 27.78 22.61 22.39s.23-11.87 2.58-16.7c1.94-3.94 5-5.49 9.39-5.46a9.74 9.74 0 0 1 8.9 4.91c2.76 4.87 2.83 13.74 2.79 19.34a70.07 70.07 0 0 1-.76 10.7zM39 10.09c-.53-2.46-1.74-4.31-4.47-4.33A3.9 3.9 0 0 0 31 7.64c-1.86 2.58-1.92 10-1.94 13.23 0 4.78-.21 9.69.51 14.41.46 2.8 1.39 5.95 4.8 6 2.18 0 3.49-1.27 4.26-3.24 1.25-3.47 1.25-11.32 1.27-15.28a56 56 0 0 0-.9-12.67z"/>
      <path fill="url(#linear-gradient-3)" d="M66.66 46.54l-8.17-21.29-.16 21.23h-6.14L52.53.91l8.12.09c2.46 0 4.57.17 6.61 1.76 3.05 2.34 3.84 6.58 3.81 10.2 0 4.44-1.31 10.3-6.64 11.48l8.5 22.18zm-8.14-25.39c1.57 0 3.21 0 4.44-1.06 1.72-1.42 2.15-4 2.16-6.13a13 13 0 0 0-1.18-6C62.93 6.24 61.43 6 59.66 6h-1z"/>
      <path fill="url(#linear-gradient-4)" d="M89.33 27.12l-.15 19.59h-6.14l.15-19.59-9.29-26h6.48L84 13.36a72.81 72.81 0 0 1 2.19 8.89c.36-2 1.28-6.68 1.84-9L91.09 1.2h6.35z"/>
      <path fill="url(#linear-gradient-5)" d="M140.5 47.09h-4.78c-1.17-7.72-2.41-15.38-3.51-23.1-.19-1.5-.46-3.07-.65-4.58-.26-2-.38-4.1-.57-6.15-.15 2.12-.31 4.23-.59 6.34-1.3 9.14-3 18.27-4.64 27.4h-4.91l-7.58-45.64h5.94c1.17 8.13 2.47 16.19 3.43 24.32.38 3.35.56 6.63.88 10 1.11-11.53 3.38-22.84 5.31-34.22h4.71c1.76 11.28 3.72 22.55 4.73 34 .15-2.18.44-4.43.73-6.61 1.16-9.14 2.66-18.2 4-27.27h5.87z"/>
      <path fill="url(#linear-gradient-6)" d="M152.11 47.18l.34-45.52h6.14l-.34 45.52z"/>
      <path fill="url(#linear-gradient-7)" d="M165.28 47.28l.34-45.52h6.14l-.3 40.34 10 .08v5.19z"/>
      <path fill="url(#linear-gradient-8)" d="M185.28 47.43l.34-45.52h6.14l-.3 40.34 10 .08v5.19z"/>
      <path fill="url(#linear-gradient-9)" d="M205.28 47.58l.34-45.52h6.14l-.34 45.52z"/>
      <path fill="url(#linear-gradient-10)" d="M233.4 47.79l-1.64-8.89-9-.07L221 47.7h-5.94l10.22-45.5h4.85l9.35 45.6zm-2.49-13.6c-1.31-7.65-2.61-15.38-3.38-23.1-.81 7.78-2.37 15.41-3.86 23z"/>
      <path fill="url(#linear-gradient-11)" d="M266.5 48c-.36-6.28-.79-12.63-1-18.91-.05-2-.17-4-.23-6.08a49.33 49.33 0 0 0-.16-6.35c-1.72 10.5-4 20.86-6 31.28L255 48c-2.11-10.39-4.55-20.78-5.77-31.37l-2 31.31h-5.73l4.1-45.5h5.26L254.62 21c.2 1.09.53 2.19.73 3.28.65 3.72 1.17 7.37 1.65 11.06.15-2.18.71-4.29 1.07-6.41.29-1.64.5-3.34.79-5 .21-1.09.49-2.11.71-3.2l3.69-18.26h5.32l3.89 45.56z"/>
      <path fill="url(#linear-gradient-12)" d="M292.86 9.67a8.1 8.1 0 0 0-5-2.08c-3.48 0-5.55 2.76-5.57 6-.06 8.39 12.62 10.61 12.52 23.16 0 6.35-3.84 12.05-10.67 12a10.37 10.37 0 0 1-6.67-2.23v-6.07c1.83 1.38 3.6 2.42 5.92 2.43 3.62 0 5.41-2.83 5.44-6.17.07-9.42-12.68-10.95-12.59-23.1 0-6.48 3.43-11.58 10.39-11.52A11.88 11.88 0 0 1 293 3.67z"/>
    </g>
  </g>
</svg>